<svg xmlns="http://www.w3.org/2000/svg" width="100" height="100" viewBox="0 0 100 100">
  <g>
    <polygon points="36,50 8,22 8,39 19,50" fill="#002B49"></polygon>
    <polygon points="36,50 8,78 8,61 19,50" fill="#00A99B"></polygon>
  </g>
  <g transform="rotate(90 50 50)">
    <polygon points="36,50 8,22 8,39 19,50" fill="#002B49"></polygon>
    <polygon points="36,50 8,78 8,61 19,50" fill="#00A99B"></polygon>
  </g>
  <g transform="rotate(180 50 50)">
    <polygon points="36,50 8,22 8,39 19,50" fill="#002B49"></polygon>
    <polygon points="36,50 8,78 8,61 19,50" fill="#00A99B"></polygon>
  </g>
  <g transform="rotate(270 50 50)">
    <polygon points="36,50 8,22 8,39 19,50" fill="#002B49"></polygon>
    <polygon points="36,50 8,78 8,61 19,50" fill="#00A99B"></polygon>
  </g>
</svg>